<svg width="360" height="30" viewBox="0 0 360 30" fill="none" xmlns="http://www.w3.org/2000/svg">
<g filter="url(#filter0_i)">
<path d="M30 30C0 30 0 0 0 0H60H120H180H240H300H360C360 0 360 30 330 30C300 30 300 0 300 0C300 0 300 30 270 30C240 30 240 0 240 0C240 0 240 30 210 30C180 30 180 0 180 0C180 0 180 30 150 30C120 30 120 0 120 0C120 0 120 30 90 30C60 30 60 0 60 0C60 0 60 30 30 30Z" fill="#41A639"/>
</g>
<defs>
<filter id="filter0_i" x="0" y="0" width="360" height="30" filterUnits="userSpaceOnUse" color-interpolation-filters="sRGB">
<feFlood flood-opacity="0" result="BackgroundImageFix"/>
<feBlend mode="normal" in="SourceGraphic" in2="BackgroundImageFix" result="shape"/>
<feColorMatrix in="SourceAlpha" type="matrix" values="0 0 0 0 0 0 0 0 0 0 0 0 0 0 0 0 0 0 127 0" result="hardAlpha"/>
<feOffset dy="-6"/>
<feComposite in2="hardAlpha" operator="arithmetic" k2="-1" k3="1"/>
<feColorMatrix type="matrix" values="0 0 0 0 0.290196 0 0 0 0 0.576471 0 0 0 0 0.219608 0 0 0 1 0"/>
<feBlend mode="normal" in2="shape" result="effect1_innerShadow"/>
</filter>
</defs>
</svg>
