<svg width="50" height="50" viewBox="0 0 50 50" fill="none" xmlns="http://www.w3.org/2000/svg">
<path d="M25 0C28.0016 -4.58838e-07 30.1764 5.68148 30.1764 5.68148C30.1764 5.68148 34.9006 1.84859 37.5 3.34936C40.0994 4.85014 39.1421 10.8579 39.1421 10.8579C39.1421 10.8579 45.1499 9.90057 46.6506 12.5C48.1514 15.0994 44.3185 19.8236 44.3185 19.8236C44.3185 19.8236 50 21.9984 50 25C50 28.0016 44.3185 30.1764 44.3185 30.1764C44.3185 30.1764 48.1514 34.9006 46.6506 37.5C45.1499 40.0994 39.1421 39.1421 39.1421 39.1421C39.1421 39.1421 40.0994 45.1499 37.5 46.6506C34.9006 48.1514 30.1764 44.3185 30.1764 44.3185C30.1764 44.3185 28.0016 50 25 50C21.9984 50 19.8236 44.3185 19.8236 44.3185C19.8236 44.3185 15.0994 48.1514 12.5 46.6506C9.90057 45.1499 10.8579 39.1421 10.8579 39.1421C10.8579 39.1421 4.85014 40.0994 3.34936 37.5C1.84859 34.9006 5.68148 30.1764 5.68148 30.1764C5.68148 30.1764 -4.58838e-07 28.0016 0 25C4.58838e-07 21.9984 5.68148 19.8236 5.68148 19.8236C5.68148 19.8236 1.84859 15.0994 3.34936 12.5C4.85014 9.90057 10.8579 10.8579 10.8579 10.8579C10.8579 10.8579 9.90057 4.85014 12.5 3.34936C15.0994 1.84859 19.8236 5.68148 19.8236 5.68148C19.8236 5.68148 21.9984 4.58838e-07 25 0Z" fill="#6A6A65"/>
<circle cx="25" cy="25" r="15" fill="white"/>
<path d="M16.2 25C14.985 25 13.9778 25.9946 14.2192 27.1854C14.6456 29.2886 15.6818 31.2382 17.2218 32.7782C19.2847 34.8411 22.0826 36 25 36C27.9174 36 30.7153 34.8411 32.7782 32.7782C34.3182 31.2382 35.3544 29.2886 35.7808 27.1854C36.0222 25.9946 35.015 25 33.8 25C32.585 25 31.6343 26.0114 31.2367 27.1595C30.9129 28.0946 30.3799 28.9539 29.6669 29.6669C28.4292 30.9046 26.7504 31.6 25 31.6C23.2496 31.6 21.5708 30.9046 20.3331 29.6669C19.6201 28.9539 19.0871 28.0946 18.7633 27.1595C18.3657 26.0114 17.415 25 16.2 25Z" fill="#2C2C2C"/>
</svg>
