<svg width="50" height="50" viewBox="0 0 50 50" fill="none" xmlns="http://www.w3.org/2000/svg">
<path d="M25 0C28.0016 -4.58838e-07 30.1764 5.68148 30.1764 5.68148C30.1764 5.68148 34.9006 1.84859 37.5 3.34936C40.0994 4.85014 39.1421 10.8579 39.1421 10.8579C39.1421 10.8579 45.1499 9.90057 46.6506 12.5C48.1514 15.0994 44.3185 19.8236 44.3185 19.8236C44.3185 19.8236 50 21.9984 50 25C50 28.0016 44.3185 30.1764 44.3185 30.1764C44.3185 30.1764 48.1514 34.9006 46.6506 37.5C45.1499 40.0994 39.1421 39.1421 39.1421 39.1421C39.1421 39.1421 40.0994 45.1499 37.5 46.6506C34.9006 48.1514 30.1764 44.3185 30.1764 44.3185C30.1764 44.3185 28.0016 50 25 50C21.9984 50 19.8236 44.3185 19.8236 44.3185C19.8236 44.3185 15.0994 48.1514 12.5 46.6506C9.90057 45.1499 10.8579 39.1421 10.8579 39.1421C10.8579 39.1421 4.85014 40.0994 3.34936 37.5C1.84859 34.9006 5.68148 30.1764 5.68148 30.1764C5.68148 30.1764 -4.58838e-07 28.0016 0 25C4.58838e-07 21.9984 5.68148 19.8236 5.68148 19.8236C5.68148 19.8236 1.84859 15.0994 3.34936 12.5C4.85014 9.90057 10.8579 10.8579 10.8579 10.8579C10.8579 10.8579 9.90057 4.85014 12.5 3.34936C15.0994 1.84859 19.8236 5.68148 19.8236 5.68148C19.8236 5.68148 21.9984 4.58838e-07 25 0Z" fill="#5CCB2E"/>
<circle cx="25" cy="25" r="15" fill="white"/>
<path d="M33.8 25C35.015 25 36.0222 24.0054 35.7808 22.8146C35.3544 20.7114 34.3182 18.7618 32.7782 17.2218C30.7153 15.1589 27.9174 14 25 14C22.0826 14 19.2847 15.1589 17.2218 17.2218C15.6818 18.7618 14.6456 20.7114 14.2192 22.8146C13.9778 24.0054 14.985 25 16.2 25C17.415 25 18.3657 23.9886 18.7633 22.8405C19.0871 21.9054 19.6201 21.0461 20.3331 20.3331C21.5708 19.0954 23.2496 18.4 25 18.4C26.7504 18.4 28.4292 19.0954 29.6669 20.3331C30.3799 21.0461 30.9129 21.9054 31.2367 22.8405C31.6343 23.9886 32.585 25 33.8 25Z" fill="#2E5F04"/>
</svg>
