<svg width="50" height="50" viewBox="0 0 50 50" fill="none" xmlns="http://www.w3.org/2000/svg">
<path d="M25 0C28.0016 -4.58838e-07 30.1764 5.68148 30.1764 5.68148C30.1764 5.68148 34.9006 1.84859 37.5 3.34936C40.0994 4.85014 39.1421 10.8579 39.1421 10.8579C39.1421 10.8579 45.1499 9.90057 46.6506 12.5C48.1514 15.0994 44.3185 19.8236 44.3185 19.8236C44.3185 19.8236 50 21.9984 50 25C50 28.0016 44.3185 30.1764 44.3185 30.1764C44.3185 30.1764 48.1514 34.9006 46.6506 37.5C45.1499 40.0994 39.1421 39.1421 39.1421 39.1421C39.1421 39.1421 40.0994 45.1499 37.5 46.6506C34.9006 48.1514 30.1764 44.3185 30.1764 44.3185C30.1764 44.3185 28.0016 50 25 50C21.9984 50 19.8236 44.3185 19.8236 44.3185C19.8236 44.3185 15.0994 48.1514 12.5 46.6506C9.90057 45.1499 10.8579 39.1421 10.8579 39.1421C10.8579 39.1421 4.85014 40.0994 3.34936 37.5C1.84859 34.9006 5.68148 30.1764 5.68148 30.1764C5.68148 30.1764 -4.58838e-07 28.0016 0 25C4.58838e-07 21.9984 5.68148 19.8236 5.68148 19.8236C5.68148 19.8236 1.84859 15.0994 3.34936 12.5C4.85014 9.90057 10.8579 10.8579 10.8579 10.8579C10.8579 10.8579 9.90057 4.85014 12.5 3.34936C15.0994 1.84859 19.8236 5.68148 19.8236 5.68148C19.8236 5.68148 21.9984 4.58838e-07 25 0Z" fill="#7880D7"/>
<circle cx="25" cy="25" r="15" fill="white"/>
<path fill-rule="evenodd" clip-rule="evenodd" d="M15.3052 13.5536L39.7622 27.674C39.5161 29.0428 39.084 30.3472 38.4932 31.5601L12.5737 16.5956C13.3428 15.4611 14.2627 14.4374 15.3052 13.5536Z" fill="#5450A0"/>
<path fill-rule="evenodd" clip-rule="evenodd" d="M16.0503 18.6027C14.7593 20.4052 14 22.6139 14 25C14 31.0751 18.9248 36 25 36C29.4517 36 33.2852 33.3558 35.0166 29.5526L16.0503 18.6027Z" fill="#5450A0"/>
</svg>
